<svg version="1.0" id="Layer_1" xmlns="http://www.w3.org/2000/svg" xmlns:xlink="http://www.w3.org/1999/xlink" x="0px" y="0px"
	 width="203px" height="60px" viewBox="0 0 203 60" style="enable-background:new 0 0 203 60;" xml:space="preserve">
<path id="XMLID_78_" style="fill:#A6A6A6;" d="M195.8,60H7.1C3.2,60,0,56.8,0,52.9V7.1C0,3.2,3.2,0,7.1,0h188.7
	c3.9,0,7.2,3.2,7.2,7.1v45.9C203,56.8,199.7,60,195.8,60L195.8,60z"/>
<path id="XMLID_76_" d="M201.5,52.9c0,3.2-2.6,5.7-5.7,5.7H7.1c-3.2,0-5.7-2.6-5.7-5.7V7.1c0-3.2,2.6-5.7,5.7-5.7h188.7
	c3.2,0,5.7,2.6,5.7,5.7V52.9L201.5,52.9z"/>
<path id="XMLID_75_" style="fill:#FFFFFF;" d="M45.3,29.6c0-4.8,3.9-7.2,4.2-7.4c-2.3-3.3-5.9-3.8-7.1-3.8c-3-0.3-5.9,1.8-7.4,1.8
	c-1.5,0-3.9-1.8-6.3-1.7c-3.2,0-6.2,2-7.8,4.8C17.4,29.3,20,38,23.3,42.9c1.7,2.4,3.6,5,6,4.8c2.4-0.2,3.3-1.5,6.3-1.5
	c2.9,0,3.8,1.5,6.3,1.5s4.2-2.4,5.9-4.7c2-2.7,2.7-5.3,2.7-5.4C50.4,37.3,45.4,35.3,45.3,29.6z"/>
<path id="XMLID_73_" style="fill:#FFFFFF;" d="M40.5,15.3c1.4-1.7,2.3-3.9,2-6.2c-2,0.2-4.2,1.4-5.7,2.9c-1.2,1.4-2.3,3.8-2,5.9
	C37,18.2,39.1,17,40.5,15.3z"/>
<path id="XMLID_127_" style="fill:#FFFFFF;" d="M80.6,47.2h-3.5l-1.8-5.9h-6.5l-1.8,5.9h-3.3l6.5-20h3.9L80.6,47.2z M74.9,38.8
	l-1.7-5.3c-0.2-0.6-0.5-1.8-1.1-3.8l0,0c-0.2,0.9-0.5,2.1-0.9,3.8l-1.7,5.3H74.9z"/>
<path id="XMLID_124_" style="fill:#FFFFFF;" d="M97.3,39.8c0,2.4-0.6,4.4-2,5.9c-1.2,1.2-2.7,2-4.4,2c-2,0-3.3-0.8-4.1-2.1l0,0v7.7
	h-3.2V37.6c0-1.5,0-3.2-0.2-4.8h2.9l0.2,2.3l0,0c1.1-1.7,2.7-2.6,4.8-2.6c1.7,0,3.2,0.6,4.2,2C96.7,35.8,97.3,37.6,97.3,39.8z
	 M94,40c0-1.4-0.3-2.6-0.9-3.5c-0.8-0.9-1.7-1.4-2.9-1.4c-0.8,0-1.5,0.3-2.1,0.8c-0.6,0.5-1.1,1.2-1.2,2.1c-0.2,0.5-0.2,0.8-0.2,0.9
	v2.4c0,1.1,0.3,2,0.9,2.7c0.6,0.8,1.5,1.1,2.6,1.1c1.2,0,2.1-0.5,2.9-1.4C93.7,42.7,94,41.5,94,40z"/>
<path id="XMLID_121_" style="fill:#FFFFFF;" d="M113.8,39.8c0,2.4-0.6,4.4-2,5.9c-1.2,1.2-2.7,2-4.4,2c-2,0-3.3-0.8-4.1-2.1l0,0v7.7
	h-3.2V37.6c0-1.5,0-3.2-0.2-4.8h2.9l0.2,2.3l0,0c1.1-1.7,2.7-2.6,4.8-2.6c1.7,0,3.2,0.6,4.2,2C113.2,35.8,113.8,37.6,113.8,39.8z
	 M110.5,40c0-1.4-0.3-2.6-0.9-3.5c-0.8-0.9-1.7-1.4-2.9-1.4c-0.8,0-1.5,0.3-2.1,0.8c-0.6,0.5-1.1,1.2-1.2,2.1
	c-0.2,0.5-0.2,0.8-0.2,0.9v2.4c0,1.1,0.3,2,0.9,2.7c0.6,0.8,1.5,1.1,2.6,1.1c1.2,0,2.1-0.5,2.9-1.4C110.2,42.7,110.5,41.5,110.5,40z
	"/>
<path id="XMLID_64_" style="fill:#FFFFFF;" d="M132.3,41.7c0,1.7-0.6,3.2-1.8,4.2c-1.4,1.2-3.2,1.8-5.4,1.8c-2.1,0-3.9-0.5-5.1-1.2
	l0.8-2.7c1.4,0.9,3,1.4,4.7,1.4c1.2,0,2.1-0.3,2.9-0.8c0.6-0.6,1.1-1.2,1.1-2.3c0-0.8-0.3-1.5-0.9-2.1c-0.6-0.6-1.5-1.1-2.7-1.5
	c-3.5-1.4-5.3-3.2-5.3-5.7c0-1.7,0.6-3,1.8-4.1c1.2-1.1,2.9-1.5,5-1.5c1.8,0,3.3,0.3,4.5,0.9l-0.8,2.6c-1.2-0.6-2.4-0.9-3.8-0.9
	c-1.2,0-2,0.3-2.7,0.9c-0.6,0.5-0.8,1.1-0.8,1.8c0,0.8,0.3,1.5,0.9,2c0.6,0.5,1.5,1.1,2.9,1.5c1.7,0.8,3,1.5,3.8,2.4
	C132,39.1,132.3,40.2,132.3,41.7z"/>
<path id="XMLID_63_" style="fill:#FFFFFF;" d="M143,35.2h-3.5v7.1c0,1.8,0.6,2.7,1.8,2.7c0.6,0,1.1,0,1.4-0.2l0.2,2.4
	c-0.6,0.3-1.5,0.3-2.6,0.3c-1.2,0-2.3-0.5-3-1.2c-0.8-0.8-1.1-2.1-1.1-3.9v-7.2h-2.1v-2.4h2.1v-2.7l3.2-0.9v3.6h3.6V35.2z"/>
<path id="XMLID_116_" style="fill:#FFFFFF;" d="M158.9,39.8c0,2.3-0.6,4.1-2,5.4c-1.4,1.5-3.2,2.3-5.3,2.3c-2.1,0-3.8-0.8-5.1-2.1
	c-1.2-1.4-2-3.2-2-5.3c0-2.3,0.6-4.1,2-5.6c1.4-1.4,3-2.1,5.3-2.1c2.1,0,3.8,0.8,5.1,2.1C158.3,35.9,158.9,37.7,158.9,39.8z
	 M155.6,40c0-1.4-0.3-2.4-0.9-3.5c-0.6-1.2-1.7-1.7-2.9-1.7c-1.4,0-2.3,0.6-3,1.7c-0.6,0.9-0.9,2.1-0.9,3.5s0.3,2.4,0.9,3.5
	c0.8,1.2,1.7,1.7,2.9,1.7c1.2,0,2.3-0.6,2.9-1.8C155.3,42.4,155.6,41.4,155.6,40z"/>
<path id="XMLID_59_" style="fill:#FFFFFF;" d="M169.3,35.6c-0.3,0-0.6-0.2-1.1-0.2c-1.2,0-2,0.5-2.6,1.2c-0.6,0.8-0.8,1.7-0.8,2.9
	v7.5h-3.2v-9.9c0-1.7,0-3.2-0.2-4.5h2.9l0.2,2.7h0.2c0.3-0.9,0.9-1.7,1.7-2.3c0.8-0.5,1.5-0.8,2.3-0.8c0.3,0,0.6,0,0.8,0
	C169.3,32.5,169.3,35.6,169.3,35.6z"/>
<path id="XMLID_112_" style="fill:#FFFFFF;" d="M183.8,39.2c0,0.6,0,1.1-0.2,1.5H174c0,1.4,0.5,2.6,1.4,3.3c0.8,0.6,1.8,1.1,3.2,1.1
	c1.4,0,2.7-0.3,3.9-0.8l0.5,2.3c-1.4,0.6-3,0.9-4.8,0.9c-2.3,0-4.1-0.6-5.3-2c-1.2-1.4-2-3-2-5.3c0-2.1,0.6-4.1,1.8-5.4
	c1.2-1.5,2.9-2.3,5.1-2.3c2.1,0,3.6,0.8,4.7,2.3C183.3,35.9,183.8,37.4,183.8,39.2z M180.6,38.5c0-0.9-0.2-1.8-0.6-2.4
	c-0.6-0.9-1.4-1.4-2.6-1.4c-1.1,0-2,0.5-2.6,1.4c-0.6,0.8-0.9,1.5-0.9,2.6L180.6,38.5L180.6,38.5z"/>
<path id="XMLID_108_" style="fill:#FFFFFF;" d="M73.8,14.9c0,1.8-0.6,3.2-1.7,4.1c-1.1,0.8-2.4,1.2-4.2,1.2c-0.9,0-1.7,0-2.3-0.2
	v-9.6c0.9-0.2,1.8-0.2,2.7-0.2c1.7,0,3,0.3,3.9,1.1C73.2,12,73.8,13.4,73.8,14.9z M72,14.9c0-1.2-0.3-2-0.9-2.7
	c-0.6-0.6-1.5-0.9-2.7-0.9c-0.5,0-0.9,0-1.2,0.2v7.4c0.2,0,0.6,0,1.1,0c1.2,0,2.1-0.3,2.9-1.1C71.7,17.1,72,16.2,72,14.9z"/>
<path id="XMLID_105_" style="fill:#FFFFFF;" d="M82.6,16.4c0,1.1-0.3,2-0.9,2.7c-0.6,0.8-1.5,1.1-2.6,1.1c-1.1,0-1.8-0.3-2.6-1.1
	c-0.6-0.8-0.9-1.5-0.9-2.6s0.3-2,0.9-2.7c0.6-0.8,1.5-1.1,2.6-1.1c1.1,0,1.8,0.3,2.6,1.1C82.3,14.4,82.6,15.3,82.6,16.4z M80.9,16.5
	c0-0.6-0.2-1.2-0.5-1.7c-0.3-0.6-0.8-0.9-1.4-0.9s-1.1,0.3-1.5,0.9c-0.3,0.5-0.5,1.1-0.5,1.7c0,0.6,0.2,1.2,0.5,1.7
	c0.3,0.6,0.8,0.9,1.5,0.9c0.6,0,1.1-0.3,1.4-0.9C80.8,17.7,80.9,17.1,80.9,16.5z"/>
<path id="XMLID_51_" style="fill:#FFFFFF;" d="M94.4,12.9L92.2,20h-1.5l-0.9-3c-0.3-0.8-0.5-1.5-0.6-2.3l0,0
	c-0.2,0.8-0.3,1.5-0.6,2.3l-0.9,3h-1.5l-2.1-7.1h1.7l0.8,3.3c0.2,0.8,0.3,1.5,0.5,2.3l0,0c0.2-0.6,0.3-1.4,0.6-2.3l1.1-3.3h1.4
	l0.9,3.3c0.3,0.8,0.5,1.7,0.6,2.4l0,0c0.2-0.8,0.3-1.5,0.5-2.4l0.9-3.3H94.4L94.4,12.9z"/>
<path id="XMLID_50_" style="fill:#FFFFFF;" d="M102.6,20h-1.5v-4.1c0-1.2-0.5-1.8-1.4-1.8c-0.5,0-0.9,0.2-1.2,0.5
	c-0.3,0.3-0.5,0.8-0.5,1.2V20h-1.5v-5c0-0.6,0-1.4,0-2h1.4v1.1l0,0c0.2-0.3,0.5-0.6,0.8-0.9c0.5-0.3,0.9-0.5,1.4-0.5
	c0.6,0,1.2,0.2,1.7,0.6c0.6,0.5,0.8,1.4,0.8,2.4V20H102.6z"/>
<path id="XMLID_49_" style="fill:#FFFFFF;" d="M106.9,20h-1.5V9.6h1.5V20z"/>
<path id="XMLID_99_" style="fill:#FFFFFF;" d="M116.2,16.4c0,1.1-0.3,2-0.9,2.7c-0.6,0.8-1.5,1.1-2.6,1.1s-1.8-0.3-2.6-1.1
	c-0.6-0.8-0.9-1.5-0.9-2.6s0.3-2,0.9-2.7c0.6-0.8,1.5-1.1,2.6-1.1s1.8,0.3,2.6,1.1C115.9,14.4,116.2,15.3,116.2,16.4z M114.6,16.5
	c0-0.6-0.2-1.2-0.5-1.7c-0.3-0.6-0.8-0.9-1.4-0.9s-1.1,0.3-1.5,0.9c-0.3,0.5-0.5,1.1-0.5,1.7c0,0.6,0.2,1.2,0.5,1.7
	c0.3,0.6,0.8,0.9,1.5,0.9c0.6,0,1.1-0.3,1.4-0.9C114.4,17.7,114.6,17.1,114.6,16.5z"/>
<path id="XMLID_96_" style="fill:#FFFFFF;" d="M123.8,20h-1.4l-0.2-0.8l0,0c-0.5,0.6-1.2,0.9-2.1,0.9c-0.6,0-1.2-0.2-1.7-0.6
	c-0.3-0.5-0.6-0.9-0.6-1.5c0-0.9,0.3-1.5,1.1-2c0.8-0.5,1.8-0.8,3-0.6v-0.2c0-0.9-0.5-1.4-1.5-1.4c-0.8,0-1.4,0.2-1.8,0.5l-0.3-1.1
	c0.6-0.5,1.5-0.6,2.4-0.6c1.8,0,2.7,0.9,2.7,3v2.6C123.8,19.1,123.8,19.5,123.8,20z M122.1,17.6v-1.1c-1.8,0-2.6,0.5-2.6,1.4
	c0,0.3,0.2,0.6,0.3,0.9c0.2,0.2,0.5,0.3,0.8,0.3s0.6-0.2,0.9-0.3c0.3-0.2,0.5-0.5,0.6-0.9C122.1,17.7,122.1,17.7,122.1,17.6z"/>
<path id="XMLID_93_" style="fill:#FFFFFF;" d="M132.8,20h-1.4v-1.2l0,0c-0.5,0.9-1.2,1.4-2.3,1.4c-0.9,0-1.5-0.3-2.1-1.1
	c-0.6-0.6-0.9-1.5-0.9-2.6c0-1.2,0.3-2.1,0.9-2.9c0.6-0.6,1.4-1.1,2.3-1.1c0.9,0,1.7,0.3,2,0.9l0,0V9.5h1.5v8.4
	C132.6,18.8,132.8,19.4,132.8,20z M131.1,17v-1.2c0-0.2,0-0.3,0-0.5c-0.2-0.5-0.3-0.8-0.6-0.9c-0.3-0.3-0.6-0.5-1.1-0.5
	c-0.6,0-1.1,0.3-1.4,0.8c-0.3,0.5-0.5,1.1-0.5,1.8c0,0.8,0.2,1.2,0.5,1.7c0.3,0.5,0.8,0.8,1.4,0.8c0.5,0,0.9-0.2,1.2-0.6
	C131,18,131.1,17.6,131.1,17z"/>
<path id="XMLID_90_" style="fill:#FFFFFF;" d="M146.2,16.4c0,1.1-0.3,2-0.9,2.7c-0.6,0.8-1.5,1.1-2.6,1.1s-1.8-0.3-2.6-1.1
	c-0.6-0.8-0.9-1.5-0.9-2.6s0.3-2,0.9-2.7c0.6-0.8,1.5-1.1,2.6-1.1s1.8,0.3,2.6,1.1C145.9,14.4,146.2,15.3,146.2,16.4z M144.7,16.5
	c0-0.6-0.2-1.2-0.5-1.7c-0.3-0.6-0.8-0.9-1.4-0.9s-1.1,0.3-1.5,0.9c-0.3,0.5-0.5,1.1-0.5,1.7c0,0.6,0.2,1.2,0.5,1.7
	c0.3,0.6,0.8,0.9,1.5,0.9c0.6,0,1.1-0.3,1.4-0.9C144.5,17.7,144.7,17.1,144.7,16.5z"/>
<path id="XMLID_39_" style="fill:#FFFFFF;" d="M154.7,20h-1.5v-4.1c0-1.2-0.5-1.8-1.5-1.8c-0.5,0-0.9,0.2-1.2,0.5
	c-0.3,0.3-0.5,0.8-0.5,1.2V20h-1.5v-5c0-0.6,0-1.4,0-2h1.4v1.1l0,0c0.2-0.3,0.5-0.6,0.8-0.9c0.5-0.3,0.9-0.5,1.5-0.5
	c0.6,0,1.2,0.2,1.7,0.6c0.6,0.5,0.8,1.4,0.8,2.4V20H154.7z"/>
<path id="XMLID_38_" style="fill:#FFFFFF;" d="M165.3,14.1h-1.8v3.5c0,0.9,0.3,1.4,0.9,1.4c0.3,0,0.5,0,0.8,0v1.2
	c-0.3,0.2-0.8,0.2-1.2,0.2c-0.6,0-1.1-0.2-1.5-0.6c-0.3-0.5-0.5-1.1-0.5-2v-3.6h-1.1v-1.2h1.1v-1.4l1.5-0.5v1.8h1.8L165.3,14.1
	L165.3,14.1z"/>
<path id="XMLID_37_" style="fill:#FFFFFF;" d="M173.7,20h-1.5v-4.1c0-1.2-0.5-2-1.4-2c-0.8,0-1.2,0.3-1.5,1.1c0,0.2,0,0.3,0,0.6v4.2
	h-1.5V9.5h1.5v4.2l0,0c0.5-0.8,1.2-1.2,2.1-1.2c0.6,0,1.2,0.2,1.7,0.6c0.6,0.6,0.8,1.4,0.8,2.4C173.7,15.8,173.7,20,173.7,20z"/>
<path id="XMLID_84_" style="fill:#FFFFFF;" d="M182.3,16.1c0,0.3,0,0.5,0,0.8h-4.7c0,0.8,0.3,1.2,0.8,1.7c0.5,0.3,0.9,0.5,1.5,0.5
	c0.8,0,1.4-0.2,2-0.3l0.3,1.1c-0.6,0.3-1.5,0.5-2.4,0.5c-1.1,0-2-0.3-2.6-0.9s-0.9-1.5-0.9-2.6s0.3-2,0.9-2.7
	c0.6-0.8,1.5-1.2,2.4-1.2c1.1,0,1.8,0.5,2.3,1.2C182.1,14.6,182.3,15.3,182.3,16.1z M180.8,15.8c0-0.5-0.2-0.9-0.3-1.2
	c-0.3-0.5-0.8-0.6-1.2-0.6c-0.5,0-0.9,0.2-1.2,0.6c-0.3,0.3-0.5,0.8-0.5,1.2C177.4,15.8,180.8,15.8,180.8,15.8z"/>
</svg>
