<?xml version="1.0" encoding="utf-8"?>
<!-- Generator: Adobe Illustrator 19.2.1, SVG Export Plug-In . SVG Version: 6.00 Build 0)  -->
<svg version="1.1" xmlns="http://www.w3.org/2000/svg" xmlns:xlink="http://www.w3.org/1999/xlink" x="0px" y="0px"
	 viewBox="0 0 203 60" style="enable-background:new 0 0 203 60;" xml:space="preserve">
<style type="text/css">
	.st0{fill:#A6A6A6;}
	.st1{fill:#25497C;}
	.st2{fill:#FFFFFF;}
</style>
<g id="Layer_1">
	<path id="XMLID_78_" class="st0" d="M195.8,60H7.1C3.2,60,0,56.8,0,52.9V7.1C0,3.2,3.2,0,7.1,0h188.7c3.9,0,7.2,3.2,7.2,7.1V53
		C203,56.8,199.7,60,195.8,60L195.8,60z"/>
	<path id="XMLID_76_" class="st1" d="M201.5,52.9c0,3.2-2.6,5.7-5.7,5.7H7.1c-3.2,0-5.7-2.6-5.7-5.7V7.1c0-3.2,2.6-5.7,5.7-5.7
		h188.7c3.2,0,5.7,2.6,5.7,5.7V52.9L201.5,52.9z"/>
	<path class="st2" d="M65.7,30.9h11.4v2.9H69v4.5h6.6v2.9H69V48h-3.3V30.9L65.7,30.9z M84.9,46.6c-0.9,1.1-2,1.9-3.6,1.9
		c-2.3,0-3.9-1.6-3.9-3.6c0-2.3,1.7-4.3,7.5-4.5v-0.3c0-1.7-0.7-2.4-2.5-2.4c-1.3,0-2.8,0.6-4.2,1.3l-0.7-2.5
		c1.2-0.8,3.2-1.5,5.3-1.5c3.9,0,5.4,1.7,5.3,5.2v4.5c0,1,0.2,1.1,1.1,1.1L89,48.2c-2.4,0.3-3.5-0.5-4-1.7L84.9,46.6L84.9,46.6z
		 M84.9,42.1c-3.1,0.4-4.3,1-4.3,2.3c0,1,0.7,1.6,1.9,1.6c1,0,1.8-0.5,2.4-1.1V42.1L84.9,42.1z M96.8,48.4c-4.1,0-6.5-2.5-6.5-6.7
		c0-4.1,2.7-6.7,6.6-6.7c1.7,0,3.2,0.4,4.3,1.1l-0.7,2.6c-1-0.7-2.2-1-3.4-1c-2.3,0-3.6,1.6-3.6,4c0,2.6,1.4,4.1,3.6,4.1
		c1.3,0,2.5-0.4,3.5-1l0.5,2.6C100,47.9,98.4,48.4,96.8,48.4z M105.5,42.4c0.1,2,1.5,3.4,3.8,3.4c1.3,0,2.8-0.4,3.9-1.1l0.4,2.7
		c-1.2,0.7-2.9,1-4.6,1c-4,0-6.7-2.6-6.7-6.6c0-4.1,2.7-6.8,6.5-6.8c3.3,0,5.2,2,5.2,5.1c0,0.7-0.1,1.6-0.3,2.1
		C113.7,42.1,105.4,42.2,105.5,42.4L105.5,42.4L105.5,42.4z M110.9,40.4c0-0.1,0-0.2,0-0.2c0-1.7-0.7-2.8-2.4-2.8
		c-1.8,0-2.8,1.4-3,3H110.9z M122.2,48.4c-0.8,0-2-0.2-2.8-0.4l-3.1,0.4V29.7l3.2-0.4c0,0,0,7.2,0,7.3c0.9-0.8,2-1.6,3.5-1.6
		c3.3,0,5.5,2.7,5.5,6.6C128.5,45.6,125.8,48.4,122.2,48.4z M122.1,37.6c-1.1,0-1.9,0.4-2.6,1c0-0.1,0,6.4,0,6.4
		c0.6,0.5,1.4,0.7,2.4,0.7c2.2,0,3.4-1.8,3.4-4.1C125.3,39.2,124.1,37.6,122.1,37.6z M136.4,48.4c-3.7,0-6.4-2.5-6.4-6.7
		s2.8-6.7,6.5-6.7s6.4,2.6,6.4,6.7C143,45.8,140.1,48.4,136.4,48.4z M136.5,37.6c-2.1,0-3.3,1.7-3.3,4.1c0,2.4,1.2,4.1,3.3,4.1
		s3.2-1.6,3.2-4.1C139.8,39.2,138.6,37.6,136.5,37.6z M150.9,48.4c-3.7,0-6.4-2.5-6.4-6.7s2.8-6.7,6.5-6.7s6.4,2.6,6.4,6.7
		S154.6,48.4,150.9,48.4z M150.9,37.6c-2.1,0-3.3,1.7-3.3,4.1c0,2.4,1.2,4.1,3.3,4.1s3.2-1.6,3.2-4.1
		C154.2,39.2,153,37.6,150.9,37.6z M162.9,41.9V48h-3.2V29.8l3.2-0.4v11.7h0.1l4.5-5.6h3.8l-5.2,6l5.2,6.6h-3.8L162.9,41.9
		L162.9,41.9L162.9,41.9z M72.7,15.9c0,1.1-0.4,1.9-1.1,2.5s-1.7,0.9-3.1,0.9h-1.1v3.9h-1.7V12.7h3c1.3,0,2.3,0.3,2.9,0.8
		C72.4,14.1,72.7,14.9,72.7,15.9z M67.4,17.9h0.9c0.9,0,1.5-0.2,1.9-0.5s0.6-0.8,0.6-1.4s-0.2-1.1-0.6-1.3c-0.4-0.3-0.9-0.4-1.7-0.4
		h-1.2L67.4,17.9L67.4,17.9L67.4,17.9z M76.3,23.2h-1.7V12h1.7V23.2z M83.7,23.2l-0.3-1.1h-0.1c-0.4,0.5-0.8,0.8-1.2,1
		s-0.9,0.3-1.5,0.3c-0.8,0-1.4-0.2-1.8-0.6s-0.7-1-0.7-1.8s0.3-1.4,0.9-1.8s1.5-0.6,2.8-0.7h1.4v-0.4c0-0.5-0.1-0.9-0.4-1.1
		c-0.2-0.2-0.6-0.4-1.1-0.4c-0.4,0-0.8,0.1-1.2,0.2c-0.4,0.1-0.7,0.3-1.1,0.4L78.9,16c0.4-0.2,0.9-0.4,1.4-0.5s1-0.2,1.4-0.2
		c1,0,1.8,0.2,2.3,0.7c0.5,0.4,0.8,1.1,0.8,2.1v5.4h-1.1L83.7,23.2L83.7,23.2z M81.1,22.1c0.6,0,1.1-0.2,1.5-0.5s0.6-0.8,0.6-1.4
		v-0.7h-1c-0.8,0-1.4,0.2-1.7,0.4C80.1,20.1,80,20.5,80,21c0,0.4,0.1,0.6,0.3,0.8C80.4,22.1,80.7,22.1,81.1,22.1z M86,15.4h1.8
		l1.6,4.5c0.2,0.6,0.4,1.2,0.5,1.8H90c0-0.3,0.1-0.6,0.2-1s0.7-2.2,1.8-5.4h1.8l-3.4,9c-0.6,1.6-1.6,2.5-3.1,2.5
		c-0.4,0-0.7,0-1.1-0.1v-1.3c0.2,0.1,0.5,0.1,0.9,0.1c0.8,0,1.4-0.5,1.7-1.4l0.3-0.7L86,15.4z M105.9,23.2h-1.7v-4.9
		c0-0.6-0.1-1.1-0.4-1.4c-0.2-0.3-0.6-0.4-1.2-0.4c-0.7,0-1.2,0.2-1.6,0.6c-0.3,0.4-0.5,1.1-0.5,2.1v4h-1.7v-7.9h1.3l0.2,1h0.1
		c0.2-0.4,0.6-0.7,1-0.9s0.9-0.3,1.5-0.3c1.9,0,2.9,1,2.9,2.9L105.9,23.2L105.9,23.2z M115.3,19.2c0,1.3-0.3,2.3-1,3
		s-1.6,1.1-2.8,1.1c-0.7,0-1.4-0.2-2-0.5s-1-0.8-1.3-1.4s-0.5-1.3-0.5-2.2c0-1.3,0.3-2.3,1-3s1.6-1.1,2.8-1.1c1.1,0,2.1,0.4,2.7,1.1
		C114.9,17.1,115.3,18.1,115.3,19.2z M109.5,19.2c0,1.8,0.7,2.7,2,2.7s2-0.9,2-2.7s-0.7-2.7-2-2.7c-0.7,0-1.2,0.2-1.5,0.7
		S109.5,18.4,109.5,19.2z M123.7,23.2l-1-3.7c-0.1-0.4-0.4-1.3-0.7-2.7h-0.1c-0.3,1.3-0.5,2.2-0.7,2.7l-1.1,3.7h-1.9l-2.2-7.9h1.7
		l1,3.9c0.2,1,0.4,1.8,0.5,2.5l0,0c0-0.3,0.1-0.7,0.2-1.2c0.1-0.4,0.2-0.8,0.3-1l1.2-4.2h1.8l1.2,4.2c0.1,0.2,0.2,0.6,0.3,1.1
		s0.2,0.9,0.2,1.1h0.1c0.1-0.6,0.2-1.4,0.5-2.5l1-3.9h1.7l-2.2,7.9H123.7L123.7,23.2z M140.1,19.2c0,1.3-0.3,2.3-1,3
		s-1.6,1.1-2.8,1.1c-0.7,0-1.4-0.2-2-0.5s-1-0.8-1.3-1.4s-0.5-1.3-0.5-2.2c0-1.3,0.3-2.3,1-3s1.6-1.1,2.8-1.1c1.1,0,2.1,0.4,2.7,1.1
		C139.7,17.1,140.1,18.1,140.1,19.2z M134.3,19.2c0,1.8,0.7,2.7,2,2.7s2-0.9,2-2.7s-0.7-2.7-2-2.7c-0.7,0-1.2,0.2-1.5,0.7
		S134.3,18.4,134.3,19.2z M149,23.2h-1.7v-4.9c0-0.6-0.1-1.1-0.4-1.4c-0.2-0.3-0.6-0.4-1.2-0.4c-0.7,0-1.2,0.2-1.6,0.6
		c-0.3,0.4-0.5,1.1-0.5,2.1v4h-1.7v-7.9h1.3l0.2,1h0.1c0.2-0.4,0.6-0.7,1-0.9s0.9-0.3,1.5-0.3c1.9,0,2.9,1,2.9,2.9L149,23.2
		L149,23.2z M53.9,10.1H18.4c-1.2,0-2.2,1-2.2,2.2v35.5c0,1.2,1,2.2,2.2,2.2h19.1V34.5h-5.2v-6h5.2v-4.4c0-5.2,3.1-8,7.8-8
		c2.2,0,4.1,0.2,4.7,0.2v5.4h-3.2c-2.5,0-3,1.2-3,2.9v3.8h6l-0.8,6h-5.2v15.5H54c1.2,0,2.2-1,2.2-2.2V12.3
		C56.1,11.1,55.1,10.1,53.9,10.1z"/>
</g>
<g id="Layer_2">
</g>
</svg>
